<?xml version="1.0" encoding="UTF-8" standalone="no"?>
<!-- Created with Inkscape (http://www.inkscape.org/) -->

<svg
   width="49.225437mm"
   height="54.529507mm"
   viewBox="0 0 49.225437 54.529507"
   version="1.1"
   id="svg1"
   xml:space="preserve"
   xmlns="http://www.w3.org/2000/svg"
   xmlns:svg="http://www.w3.org/2000/svg"><defs
     id="defs1" /><path
     id="rect17"
     style="fill:#2374f2;fill-opacity:1;stroke:#000000;stroke-width:0;stroke-dasharray:none;stroke-opacity:1"
     d="M 19.920739,-2.0120445e-5 C 18.807319,-4.3012044e-4 17.852359,0.77820988 17.650729,1.8510499 l -0.76725,4.08575 c -0.0391,0.20905 -0.24252,0.41798 -0.45305,0.46954 -2.31357,0.56648 -4.52863,1.46446 -6.5734792,2.66658 -0.18605,0.10935 -0.48029,0.10289 -0.659,-0.0182 l -3.4915,-2.3559 c -0.9167,-0.61877 -2.15368,-0.50889 -2.94076,0.26239 l -2.08993994,2.04643 c -0.78721,0.77113 -0.89983,1.9837701 -0.26832,2.8819101 l 2.40651994,3.4209 c 0.1232,0.17513 0.12935,0.46257 0.0182,0.64487 -0.72872,1.18956 -1.34805,2.43792 -1.85224994,3.73039 H 9.3067898 c 2.5398392,-4.19884 7.2123192,-7.01348 12.5549992,-7.0136 8.05439,-4.7e-4 14.58362,6.39686 14.58378,14.28841 5e-4,7.892 -6.52894,14.29008 -14.58378,14.2896 -5.08153,-1.2e-4 -9.55726,-2.5471 -12.1678592,-6.40873 H 0.98107986 c 0.50421994,1.29227 1.12257994,2.54111 1.85106994,3.73039 0.11159,0.1824 0.10546,0.4698 -0.0182,0.64486 l -2.40651994,3.4209 c -0.63151,0.89818 -0.51889,2.11076 0.26832,2.88192 l 2.08993994,2.04642 c 0.78708,0.77129 2.02406,0.88235 2.94076,0.26359 l 3.4915,-2.35709 c 0.17876,-0.12068 0.47293,-0.12821 0.659,-0.0182 2.0448092,1.20252 4.2598392,2.10213 6.5734792,2.66895 0.21064,0.0515 0.41379,0.26039 0.45305,0.46951 l 0.76725,4.08578 c 0.20176,1.07284 1.15659,1.85147 2.27001,1.85107 h 2.95487 c 1.11298,-1.7e-4 2.06722,-0.77867 2.26884,-1.85107 l 0.76727,-4.08578 c 0.0391,-0.20905 0.24251,-0.41795 0.45304,-0.46951 2.31405,-0.56671 4.52947,-1.46631 6.57465,-2.66895 0.18604,-0.10924 0.48029,-0.10178 0.65899,0.0182 l 3.49149,2.35709 c 0.91672,0.61876 2.15371,0.5077 2.94078,-0.26359 l 2.08877,-2.04642 c 0.7872,-0.77116 0.8998,-1.98374 0.26829,-2.88192 l -2.40531,-3.4209 c -0.12319,-0.17511 -0.13049,-0.46373 -0.0182,-0.64604 1.22694,-2.0035 2.14492,-4.17369 2.72305,-6.44049 0.0526,-0.20632 0.26554,-0.40519 0.47897,-0.44365 l 4.16931,-0.75078 c 1.09497,-0.19767 1.89032,-1.13437 1.88989,-2.22529 v -2.89487 c -1.6e-4,-1.09046 -0.79535,-2.02539 -1.88989,-2.22293 l -4.16931,-0.75078 c -0.21337,-0.0384 -0.42636,-0.23737 -0.47897,-0.44364 -0.57803,-2.26718 -1.496,-4.43899 -2.72305,-6.44285 -0.11158,-0.18241 -0.10433,-0.46977 0.0182,-0.64487 l 2.40531,-3.4209 c 0.63151,-0.89814 0.51891,-2.1107801 -0.26829,-2.8819101 l -2.08877,-2.04643 c -0.78707,-0.77128 -2.02406,-0.88116 -2.94078,-0.26239 l -3.49149,2.3559 c -0.17876,0.12069 -0.47291,0.12706 -0.65899,0.0182 -2.04523,-1.20225 -4.26067,-2.10019 -6.57465,-2.66658 -0.21064,-0.0515 -0.41382,-0.26043 -0.45304,-0.46954 l -0.76727,-4.08575 C 24.942919,0.77861988 23.988589,1.0987956e-4 22.875609,-2.0120445e-5 Z M 22.294289,17.4951 c -3.23543,-0.0467 -6.46534,1.47327 -8.37746,4.4388 -0.55908,0.88968 -1.54845,1.43188 -2.61479,1.43214 H 0.22207986 v 7.18892 H 11.302039 c 0.96953,-0.0531 1.89927,0.38252 2.46533,1.15558 3.50753,5.40494 11.27862,6.11201 15.74175,1.43216 l 0.26006,-0.27301 c 0,0 0.27227,-0.28292 0.27066,-0.46013 -0.001,-0.17194 -0.007,-0.41945 -0.27066,-0.44247 h -7.13951 c -0.49381,9e-5 -0.94549,-0.27263 -1.16736,-0.70488 l -1.76751,-3.44327 c -0.2287,-0.44469 -0.23543,-0.96783 -0.0182,-1.41801 l 1.80399,-3.7339 c 0.21042,-0.43549 0.658,-0.71318 1.14972,-0.71313 l 7.1383,-0.001 c 0.11797,-0.009 0.24735,0.016 0.35776,-0.17056 0.14118,-0.23815 -0.35776,-0.73194 -0.35776,-0.73194 l -0.53425,-0.54486 c -1.9046,-1.99021 -4.42416,-2.97387 -6.94063,-3.01019 z" /></svg>
